<?xml version="1.0" encoding="utf-8"?>
<!-- Generator: Adobe Illustrator 21.0.2, SVG Export Plug-In . SVG Version: 6.00 Build 0)  -->
<svg version="1.1" id="Layer_1" xmlns="http://www.w3.org/2000/svg" xmlns:xlink="http://www.w3.org/1999/xlink" x="0px" y="0px"
	 viewBox="0 0 629.3 381.5" style="enable-background:new 0 0 629.3 381.5;" xml:space="preserve">
<style type="text/css">
	.st0{fill:#FFFFFF;}
</style>
<path d="M152.8,102c0,0.1,0.1,0.1,0.1,0.2c0.1,0.3,0.3,0.8,0.6,1.4c1.4,3.5,4.5,10.6,8.1,17.1c2,3.6,4,6.5,5.9,8.7
	c-1.5,2.1-3.6,5.7-4.7,10.3c-1.1,4.7-0.6,10.9,1.4,16.8c0.8,2.5,1.9,4.8,3.2,6.9c0,0,0,0,0,0c0,0,0,0,0,0.1
	c-0.1,0.2-0.1,0.4-0.1,0.6c-1.5,11.7,3.5,23.1,13.4,30.5c1.6,1.2,3.2,2.2,4.9,3.1c1.4,4.4,4.4,8.5,8.7,11.9c2.9,2.3,6.2,4.1,9.7,5.4
	c0,0,0,0.1,0.1,0.1c3.7,5.3,9.4,9.1,16.5,11.1c1.8,0.5,3.6,0.9,5.4,1.1c0.1,0.1,0.2,0.2,0.3,0.3c3.4,3.3,7.9,5.8,13.1,7.3
	c-0.9,6.8,0,12,1.4,15.8h192.5c0.1-6.3-1.6-12.6-5.1-18.3c-0.1-0.1-0.2-0.3-0.3-0.4c1.2-8.9-0.8-17.8-5.9-25.3
	c-5.4-8.1-13.7-13.6-23.3-15.5c-1-0.2-2-0.3-3-0.5c-0.1,0-0.3,0-0.4,0c-9.8-9.5-20.2-14.4-23.8-15.9c0.1-0.5,0.2-1,0.3-1.5
	c0.1,0,0.3-0.1,0.4-0.1c10.4-4.5,16.7-12.2,18-22.3c1-7.9-1.2-16.7-5.6-22.8c0-0.1,0-0.2,0.1-0.3c1.1-10.7-0.6-20.1-4.8-27.8
	c-3.5-6.3-8.7-11.3-14.8-14.1c0,0-0.1,0-0.1,0c-1.7-5.7-9-10.1-16.9-9.9c-6.2,0.2-12.9,3.1-15.5,7.8c-9.4,3.4-24,12.2-28.4,34.4
	c-6.5,4.9-10.8,12.1-11.8,20c-1.1,8.8,1.8,17.5,7.8,24.1c-6,0-15.7,0.5-27.1,2.8c-0.1,0-0.2,0.1-0.3,0.1c-8.8-6.2-20.1-8.6-30.3-5.9
	c-0.4,0.1-0.8,0.3-1.1,0.5c-2.8-0.9-5.9-1.5-9.3-1.9c-0.2,0-0.4,0-0.6,0c-1.5-4.8-4-9.1-7.5-12.5c-0.2-0.2-0.6-0.5-0.6-0.5
	c0,0,0,0,0,0c-0.5-3.5-1.5-7.3-1.9-8.6c-1-3.4-2.6-7.2-7-11.7c-2.9-2.9-5.9-4.6-8-5.6c0.4-1.1,0.7-2.1,0.8-2.7
	c0-0.2,0.1-0.5,0.1-0.7c0-0.1,1.1-10.8,2.4-17.2c0-0.1,0-0.2,0-0.2c3.5-21.8,3.5-22.1,3.5-22.4c0,0,0-0.1,0-0.1
	c0.2-2-0.5-3.9-1.9-5.4c-1.7-1.8-4.2-2.9-7-2.9c-3.9,0-7.4,2-9.6,5.5c-1.3,2-2.2,4.5-2.9,6.6c-3.6-7-8.4-16.3-11.8-23
	c-0.1-0.1-0.1-0.2-0.2-0.3c-1.2-2-3.9-4.3-7.7-4.3c-1.1,0-2.3,0.2-3.4,0.6c-1.7-1.4-3.7-2.2-5.9-2.2c-1.1,0-2.2,0.2-3.3,0.6
	c-3.9,1.3-6.1,4.7-6.1,8.8c-3,1.1-5.1,3.5-5.6,6.6c-0.4,2.1,0,3.9,0.2,4.8c0,0.1,0.1,0.3,0.2,0.6c-0.1,0.1-0.2,0.3-0.3,0.4
	C145.8,75.3,144.7,81.5,152.8,102"/>
<path class="st0" d="M301.6,168.3c0,0,2.8,0.2,4.5,0.8c2.8,1.1,8.5,6.5,11.5,7c0.5,0.1,1.9-0.3,0.4-1.3c-0.4-0.3-3.9-3.4-2.6-5.1
	c0,0,0,0,0.1-0.1c0.5-0.7,1.1-0.8,1.7-0.7c4.4,1.1,8.1,1.7,9.4,1.9c0.8,0.1,1.3,0.1,1.7-0.1c0.3-0.3,0.1-0.5-0.8-0.7
	c-6.8-1.8-14.3-4.8-19.6-8.7c-7.1-5.4-10.8-14-9.7-22.5c0.8-6.3,4.1-11.8,9.2-15.7c2-1.5,5.3-2.6,6.2-2.9c2.5-0.9-1.6-1.5-1.9-1.6
	c-1-0.2-1.1-1.2-0.2-4.5c4.7-15.2,15.2-21.9,23.8-24.8c1.5-0.5,3.9-1.1,5.4-1.4c2.4-0.4,1.5-1.4-1.2-1.8c0,0-0.9-0.1-0.5-0.7
	c0.1-0.1,0.6-0.7,1.4-1.2c2-1.2,4.8-2.2,7.9-2.3c5.6-0.1,10.4,3,10.9,5.8c0,0,0.2,0.6-0.5,0.6c-1.1,0-1.9,0.5-0.5,1.2
	c0.3,0.2,1.8,0.6,3.9,1.6c0.1,0.1,0.2,0.1,0.3,0.2c4.2,2,17.3,9.9,16.3,32.4v0c0,0.7-0.1,1.3-0.1,2c0,0.6-0.1,1.2-0.2,1.9
	c-1.2-0.1-1.8,0.4-0.9,1.3c0.6,0.6,2.2,2.5,3.1,4c2.9,4.9,4.4,11.3,3.6,17.2c-1,8-6,12.9-11,15.8c-2.2,1.3-7.4,3.8-13.8,5.2
	c-1.3,0.3-0.7,2,5.4,1.9c0.5,0.1,1.6,0.1,1.9,0.7c0.7,1.3-0.5,3.9-3.2,5.4c-2.3,1.3-0.5,1.6,2.7,0.7c0.9-0.2,3.4,0.8,3.7,1
	c5.1,2.3,18.1,9,27.8,22.1c6.7,9.7,9.2,17.3,7.1,22.1c-2,4.6-8.1,5.5-8.2,5.5c0,0-0.1,0-0.1,0c-23.5,3.7-64.4-2.8-92.5-11.1
	c-5-1.5-12.6-4.1-18.9-6.9c6.2-13.5,3.8-30.5-6.4-42c-0.1-0.2-0.3-0.3-0.4-0.4C288.4,168.5,296.8,168.3,301.6,168.3"/>
<path class="st0" d="M416.8,210.2c4.5,6.8,6.1,14.9,4.6,22.8c-1.3,6.7-4.9,12.8-10,17.2c0.1-5.6-0.8-12.1-4.9-17.2
	c1.6-1.3,3.1-3,4.2-5.3c3.1-7,0.5-16.5-7.7-28.2c0,0,0-0.1-0.1-0.1c-0.2-0.2-0.4-0.5-0.5-0.7C408.2,200.9,413.2,204.9,416.8,210.2"
	/>
<path class="st0" d="M274.2,174.8c9.4,10.6,11,26.7,3.8,38.4c-8.1,13-22.6,19.5-36.1,16.1c-2-0.5-3.8-1.2-5.5-2
	c1.3-0.2,2.6-0.5,3.8-0.8c13.3-3.6,23.2-15.9,24.7-30.5c0.9-9.2-1.7-18.5-7.2-25.4c-1.9-2.4-4.2-4.5-6.7-6.2
	C259.5,164.3,268.3,168.1,274.2,174.8"/>
<path class="st0" d="M252.8,174.3c4.5,5.7,6.6,13.3,5.9,20.9c-1.2,12.1-9.3,22.2-20.2,25.2c-9.1,2.5-17.9,0.3-23.9-3.6
	c13.2-0.3,25.9-9.3,30.2-22.6c2.1-6.6,2-13.9-0.4-20.3c-1.1-3-2.7-5.7-4.6-8.2C245.4,167.5,249.6,170.3,252.8,174.3"/>
<path class="st0" d="M232.1,174.7c0.5-2.5,0.7-5,0.6-7.5c6.5,6.2,9.1,16,6.1,25.1c-4,12.5-17.4,20.5-29.8,17.7
	c-5.2-1.2-11.3-4.4-15-9.2c2.2,0.5,4.5,0.7,6.8,0.7c4.3,0,8.6-0.9,12.7-2.6C223.1,194.8,230,185.7,232.1,174.7"/>
<path class="st0" d="M222.9,154.1C222.9,154.1,222.9,154.1,222.9,154.1c3.3,5.5,4.5,12.5,3.2,19.5c-1.7,9-7.3,16.4-14.9,19.7
	c-8.7,3.8-18.7,2.5-26.8-3.6c-6.4-4.8-10.3-11.6-11-18.9c0,0,0,0,0,0c0.6,0.6,1.3,1.1,2,1.6c4.9,3.5,10.8,5.4,17.2,5.4
	c4.4,0,7.6-0.9,8.2-1c11.3-3.2,16.9-10,19.5-15.1C221.6,158.8,222.4,156.2,222.9,154.1"/>
<path class="st0" d="M153.2,75c0.1,0,0.2-0.1,0.2-0.2c0.2-0.2,0.5-0.3,0.8-0.4c0.1,0,0.2,0,0.3,0c0.3,0,0.6,0,0.8,0
	c0.2,0,0.4,0.1,0.6,0.1c1.8,0.6,3.1,2.9,3.5,6.1c1.2,9,5.4,15,5.6,15.3c0.3,0.4,0.7,0.6,1.1,0.6c0.3,0,0.5-0.1,0.8-0.3
	c0.6-0.4,0.7-1.3,0.3-1.9c0-0.1-4-5.7-5.1-14.1c-0.6-4.2-2.5-7.2-5.3-8.2c-0.7-0.2-1.4-0.4-2-0.3c-0.4-0.8-0.7-1.7-0.8-2.1
	c-0.3-1.2-0.8-3.4,1.8-4.3c0.2-0.1,0.3-0.1,0.5-0.1c0.1,0,0.2,0,0.3,0c1.9-0.2,4.3,0.6,6.7,9.3c2.2,8,7.3,15.8,7.6,16.1
	c0.3,0.4,0.7,0.6,1.1,0.6c0.3,0,0.5-0.1,0.7-0.2c0.6-0.4,0.8-1.2,0.4-1.9c0-0.1-5.1-7.8-7.2-15.3c-1.1-3.7-2.5-7.8-5-9.9
	c-0.4-0.9-0.8-1.9-0.9-2.3c-0.4-1.3-0.9-4.1,1.6-4.9c0.5-0.2,0.9-0.2,1.3-0.2c1.9,0,2.9,1.7,3.4,2.9c0.1,0.2,0.2,0.4,0.2,0.6
	l11,26.4c0.1,0.2,0.2,0.4,0.3,0.5c0.4,0.3,0.8,0.4,1.3,0.2c0.6-0.3,0.9-1,0.7-1.6l-10.7-25.6c0.2-0.5,0.6-0.9,1.2-1.3
	c0.7-0.3,1.3-0.5,1.8-0.5c1.6,0,2.4,1.4,2.4,1.4s14.3,28,17,32.8c-1.1,1.8-2,3.6-2.1,4.1c-0.2,0.7,0.3,1.4,0.6,0.7
	c0.8-1.2,1.9-2.6,2.9-3.7c0,0,0,0,0,0c0,0,0,0,0,0c0,0,0.1-0.1,0.1-0.2c0.7-1.2,2.8-6.8,3.6-8.5c0.6-2.6,1.7-6,3.1-8.2
	c1.2-1.9,2.9-2.6,4.4-2.6c1.6,0,2.9,0.8,2.8,1.7c0,0.4-3.5,22-3.5,22c-0.9,4.5-1.7,11-2.2,14.8c0,0.9-0.1,1.8-0.3,2.7
	c0,0.2,0,0.3,0,0.3s0,0.2-0.1,0.5c-0.7,3.3-2,5.8-2,5.8l1.1,5.2c0,0,0,0,0,0c0.4,2.2,0.9,4.5,1.1,5.2c0.8,2.9-0.2,4.6,0.3,5.2
	c0.7,0.8,2.6-3.1,3-5.1c0.4-1.6-0.2-4.9-0.8-7.2c1.6,0.7,3.9,2.1,6.1,4.2c3.7,3.7,4.8,6.7,5.5,9c0.7,2.4,1.9,7.6,2,10.3
	c0.1,2.8-0.9,17.5-18.3,22.5c0,0-2.7,0.8-6.5,0.8c-3.9,0-9-0.8-13.6-4.2c-8.4-6-11.7-19.1-10.1-26.1c0.8-3.3,2.2-5.9,3.3-7.6
	c0.8,0.5,1.6,0.9,2.5,1.2l0.5,2.4c0.1,0.3,1.4,6.9,4,9c1.5,1.2,4,1.3,4.7,1.3c0.8,0,2.6-0.1,2.9-0.9c0.1-0.1,0.1-0.5-0.2-0.8
	c-0.1-0.1-0.4-0.3-0.8-0.5c-1.2-0.7-3.6-1.9-4.1-4.2c-0.3-1.3-1.3-5.8-2-8.4c2.6-2.1,2.9-4.3-0.5-3.6c-2,0.4-3.9-0.5-5.4-1.7
	c-6.8-6-14-24.3-15.4-27.5C152.7,85,151.4,77.2,153.2,75"/>
<path class="st0" d="M427,250.8h-7.5c2.4-2.9,4.4-6.2,5.9-9.7C426.5,244.2,427.1,247.5,427,250.8"/>
<path class="st0" d="M245.3,236.1c1.3,0.1,2.6,0.2,3.8,0.2c12.7,0,25.1-6.7,33-18.3c6.7,3,14.7,5.8,20.2,7.5
	c15.5,4.6,33.2,8.2,49.9,10.4c10.5,1.3,20.1,2,28.6,2c6.3,0,11.9-0.4,16.7-1.1c0.3,0,1.6-0.2,3.2-0.8c3.8,4,4.6,9.8,4.3,14.8H247.4
	C245.9,247.8,244.5,243,245.3,236.1"/>
<path d="M329.4,138.7c-0.1-0.5-0.8-0.5-1-0.5c-0.6,0-1.4,0.2-2,0.4c-1.6,0.6-2.8,2.5-2.8,3.6c0,0.2,0.1,0.3,0.2,0.4
	c0.1,0.1,0.3,0.2,0.6,0.2c0,0,0,0,0,0l0,0l0,0c0.3,0,0.5-0.2,0.5-0.5c0-0.3,0.2-0.8,0.6-1.2c0.4-0.4,1.1-1.1,3.1-1.5
	C329.1,139.5,329.6,139.2,329.4,138.7 M343.8,127.3c-1.2,1.8-2.6,3-3.8,3c-0.1,0-0.2,0-0.4,0c2.1-1.1,3.8-4,4.1-7.4
	c0.4-4.6-1.8-8.6-4.9-8.9c-1.5-0.1-2.9,0.6-4.1,1.9c1.1,0,2.1,1.1,2.1,2.6c0.1,1.5-0.8,2.7-2,2.8c-0.9,0-1.8-0.7-2.1-1.8
	c-0.2,0.8-0.4,1.6-0.5,2.4c-0.3,2.8,0.5,5.4,1.8,7.1c-0.2-0.2-0.4-0.3-0.5-0.5c-1-1.2-1.7-3-2-5.2c-0.1-1-0.2-2-0.1-3
	c0.2-2.5,1.7-10.4,8-9.7c4.8,0.5,6.1,4,6.4,7.1c0,0.1,0,0.3,0,0.4c0.3,3-0.3,5.1-1,7.1C344.6,125.9,344.2,126.7,343.8,127.3
	 M347.7,120.2c0.1-5.3-0.6-9.3-4.4-11.7c-0.4-0.2-0.8-0.4-1.2-0.6c-1.6-0.6-3.5-0.7-5.2-0.2c-2,0.5-3.5,2-4.6,3.7
	c-1.1,1.8-1.7,3.8-2.1,5.9c-0.4,2.1-0.6,4.2-0.3,6.3c0.3,2.1,1,4.4,2.4,6.1c0.7,0.9,1.6,1.5,2.6,1.8c0.9,0.3,1.8,0.5,2.7,0.6
	c0,0,1.5,0.2,2.5,0.1C343.9,131.9,347.6,126,347.7,120.2 M358.7,148.8c-1.4,1.1-2.9,2-4.6,2.6c-1.7,0.5-3.6,0.6-5.4,0.5
	c-1.8-0.2-3.5-0.6-5.2-1.3c-1.8-0.8-3.3-2.1-4.7-3.5C345.3,148.7,352.1,149.5,358.7,148.8 M362.4,145.8c-3.9,0.9-8,1-12.1,0.6
	c-6.6-0.5-13.2-2-19.4-4.6c-0.6-0.2-1.1-0.5-1.6-0.7c-0.3-0.1-0.5-0.3-0.8-0.4v0c-0.9-0.3-1.7,0.3-1.8,1.2c0,0.7,0.4,1.1,1,1.4
	c1.6,0.9,3.4,1.5,5.2,2.1c1.5,0.7,2.6,2.1,3.8,3.2c1.4,1.4,2.9,2.8,4.7,3.8c3.3,1.9,7.5,2.5,11.2,2c2-0.3,3.8-1,5.5-2
	c1.2-0.8,2.3-1.7,3.4-2.6c0.7-0.5,1.3-1.1,2.1-1.5c0.4-0.2,3.5-1.5,5-2.4c0,0.6,0,1.1,0.4,1.1c0.4,0.1,0.8-0.7,0.9-1.3
	c0.2-0.7,0-1.3-0.2-1.7c-0.2-0.4-0.9-1-1.5-1.1c-0.7-0.1-0.8,0.5-0.6,0.7c0.1,0.1,0.2,0.2,0.3,0.3c-0.2,0.1-0.5,0.3-0.7,0.4
	C365.6,144.9,364,145.4,362.4,145.8 M370.4,125.4c-0.2,1-0.5,2-0.9,2.9c-0.8,2-2,3.6-3.2,4.5c-0.5,0.4-1.1,0.6-1.8,0.7
	c2-1.2,3.6-4,3.9-7.3c0.4-4.6-1.7-8.6-4.8-8.9c-1.5-0.1-2.9,0.6-4,1.9c1.1,0,2,1.1,2.1,2.6c0.1,1.5-0.8,2.8-1.9,2.8
	c-0.9,0.1-1.7-0.7-2-1.8c-0.2,0.8-0.4,1.6-0.5,2.4c-0.3,3.1,0.6,5.9,2.1,7.5c-0.9-0.6-1.8-1.9-2.3-3.6c-0.2-0.8-0.4-1.6-0.5-2.4
	c-0.2-2.1-0.2-4.2,0.8-7.1c0-0.1,0.1-0.3,0.1-0.4c1.1-2.9,3.2-5.9,7.8-5.2C371.5,115,370.8,122.9,370.4,125.4 M371.9,116.7
	c-0.5-1.9-1.6-3.7-3.3-4.7c-1.4-0.8-3.2-1.2-4.9-1.1c-0.5,0-0.9,0.1-1.3,0.3c-4.2,1.3-5.8,5-7.1,10.1c-1.4,5.6,0.5,12.2,4.1,13.3
	c0.9,0.3,2.3,0.5,2.3,0.5c0.9,0.2,1.8,0.2,2.7,0.2c1-0.1,2-0.4,2.9-1.1c1.7-1.3,3-3.3,3.8-5.2c0.8-2,1.2-4,1.3-6.1
	C372.6,120.8,372.5,118.7,371.9,116.7"/>
<polygon points="79.4,250.8 74.8,263.3 574.6,263.3 579.2,250.8 "/>
<path d="M548.1,280l-12.7,34.4c0.2-3.5,0.9-17.2,1.3-25c0.2-3.2-0.5-5.7-2.1-7.4c-1.9-2-4.4-2-4.4-2H502l-18.4,50.2h20.5l13.1-35.5
	l-1.6,35.5H550l18.5-50.2H548.1z M469.1,330.2l18.5-50.2h-24.3l-18.5,50.2H469.1z M441.7,313.5h-23.8l12.3-33.5h-23.6l-18.5,50.2
	h47.5L441.7,313.5z M388.2,293.2l4.9-13.1h-50.6L324,330.2h51.2l5-13.5h-28.3l2.1-5.6h26.4l4.5-12.3h-26.4l2-5.6H388.2z
	 M310.3,330.2l18.5-50.2h-23.1l-6.7,18.1h-12.2l6.7-18.1h-23.2l-18.4,50.2h23.1l6.3-17h12.2l-6.3,17H310.3z M250.5,298.4l7.3-17.6
	c-12.6-3.1-25.3-1.6-31.9-0.3c-14.7,3-34.7,13.8-34.4,33.5c0.1,11.4,13.9,17.7,29.6,17.3c8.8-0.2,17.3-1.9,18.3-2l5.9-15.2
	c-7.7,1.2-15.2,3.1-21,0.7c-10.5-4.2-4-15.1,3.4-18.5c3.3-1.5,7.7-2.9,13.1-2.8C243,293.5,248.4,293.6,250.5,298.4 M173.6,330.2
	l18.4-50.2h-24.3l-18.5,50.2H173.6z M135.3,330.2l18.5-50.2h-34.3L101.8,307c0,0,1.1-14.1,1.4-17.5c0.2-2.6-0.1-9.5-6.4-9.5H68.6
	l-18.5,50.2h22l13.4-36.3l-2.8,36.3h19.6l24-35.6l-13.1,35.6H135.3z"/>
</svg>
